<svg version="1.2" xmlns="http://www.w3.org/2000/svg" viewBox="0 0 103 108" width="103" height="108"><defs><clipPath clipPathUnits="userSpaceOnUse" id="cp1"><path d="m-136-191h375v812h-375z"/></clipPath></defs><style>.a{fill:#69a03a}.b{opacity:.6;fill:#69a03a}.c{opacity:.9;fill:#69a03a}.d{opacity:.2;fill:#69a03a}.e{opacity:.4;fill:#69a03a}.f{opacity:.8;fill:#69a03a}.g{opacity:.7;fill:#69a03a}</style><g clip-path="url(#cp1)"><path class="a" d="m58.9 4.9v19.6c0 2.7-2.2 4.9-4.9 4.9-2.8 0-5-2.2-5-4.9v-19.6c0-2.7 2.2-4.9 5-4.9 2.7 0 4.9 2.2 4.9 4.9z"/><path class="b" d="m58.9 83.4v19.6c0 2.7-2.2 4.9-4.9 4.9-2.8 0-5-2.2-5-4.9v-19.6c0-2.7 2.2-4.9 5-4.9 2.7 0 4.9 2.2 4.9 4.9z"/><path class="c" d="m36.6 36.6c-0.9 1-2.2 1.4-3.5 1.4-1.2 0-2.5-0.4-3.4-1.4l-13.9-13.9c-1.9-1.9-1.9-5 0-6.9 1.9-1.9 5-1.9 6.9 0l13.9 13.9c1.9 1.9 1.9 5 0 6.9z"/><path class="d" d="m103 54c0 2.7-2.2 4.9-4.9 4.9h-9.8c-2.7 0-4.9-2.2-4.9-4.9 0-2.8 2.2-5 4.9-5h9.8c2.7 0 4.9 2.2 4.9 5z"/><path class="e" d="m92.1 85.2c1.9 1.9 1.9 5 0 6.9-1 1-2.2 1.4-3.5 1.4-1.2 0-2.5-0.4-3.4-1.4l-13.9-13.9c-1.9-1.9-1.9-5 0-6.9 1.9-1.9 5-1.9 6.9 0z"/><path class="f" d="m24.5 58.9h-19.6c-2.7 0-4.9-2.2-4.9-4.9 0-2.8 2.2-5 4.9-5h19.6c2.7 0 4.9 2.2 4.9 5 0 2.7-2.2 4.9-4.9 4.9z"/><path class="g" d="m36.6 78.2l-13.9 13.9c-0.9 1-2.2 1.4-3.4 1.4-1.3 0-2.5-0.4-3.5-1.4-1.9-1.9-1.9-5 0-6.9l13.9-13.9c1.9-1.9 5-1.9 6.9 0 1.9 1.9 1.9 5 0 6.9z"/></g></svg>