<svg version="1.2" xmlns="http://www.w3.org/2000/svg" viewBox="0 0 173 30" width="173" height="30"><defs><clipPath clipPathUnits="userSpaceOnUse" id="cp1"><path d="m-20-393h375v812h-375z"/></clipPath></defs><style>.a{fill:#ffb600}.b{fill:#f7981d}.c{fill:#ff8500}.d{fill:#ff5050}.e{fill:#e52836}.f{fill:#cb2026}.g{fill:#fff}.h{fill:#dce5e5}.i{fill:#009ddd}.j{fill:#ed1c2e}.k{fill:#3c58bf}.l{fill:#293688}.m{fill:#ffbc00}.n{fill:#ed7c00}.o{fill:#051244}</style><g clip-path="url(#cp1)"><path class="a" d="m49 14.5c0 8.1-6.5 14.6-14.6 14.6-8 0-14.5-6.5-14.5-14.6 0-8 6.5-14.5 14.5-14.5 8.1 0 14.6 6.5 14.6 14.5z"/><path class="b" d="m34.4 0c8.1 0 14.6 6.5 14.6 14.5 0 8.1-6.5 14.6-14.6 14.6-8 0-14.5-6.5-14.5-14.6"/><path class="c" d="m34.4 0c8.1 0 14.6 6.5 14.6 14.5 0 8.1-6.5 14.6-14.6 14.6"/><path class="d" d="m15 0.2c3.7 0 7.2 1.3 9.7 3.7-0.5 0.5-1 1-1.4 1.5h2.8c0.5 0.5 0.9 1 1.2 1.5h-5.2c-0.3 0.6-0.6 1-0.8 1.6h6.8c0.2 0.4 0.4 1 0.6 1.5h-8c-0.2 0.5-0.3 1-0.4 1.5h8.9c0.2 1 0.3 2 0.3 3.1 0 1.6-0.3 3.2-0.7 4.6h-8.1c0.2 0.6 0.4 1.1 0.7 1.6h6.8c-0.2 0.5-0.5 1.1-0.8 1.5h-5.2c0.3 0.5 0.7 1 1.1 1.5h3c-0.5 0.5-0.9 1.1-1.5 1.5-2.6 2.3-6 3.8-9.8 3.8-8 0-14.5-6.5-14.5-14.6 0-8 6.5-14.4 14.4-14.5 0.1 0 0.1 0 0.1 0.2z"/><path class="e" d="m14.9 0.2h0.1c3.7 0 7.2 1.3 9.7 3.7-0.5 0.5-1 1-1.4 1.5h2.8c0.5 0.5 0.9 1 1.2 1.5h-5.2c-0.3 0.6-0.6 1-0.8 1.6h6.8c0.2 0.4 0.4 1 0.6 1.5h-8c-0.2 0.5-0.3 1-0.4 1.5h8.9c0.2 1 0.3 2 0.3 3.1 0 1.6-0.3 3.2-0.7 4.6h-8.1c0.2 0.6 0.4 1.1 0.7 1.6h6.8c-0.2 0.5-0.5 1.1-0.8 1.5h-5.2c0.3 0.5 0.7 1 1.1 1.5h3c-0.5 0.5-0.9 1.1-1.5 1.5-2.6 2.3-6 3.8-9.8 3.8-8 0-14.5-6.5-14.5-14.6"/><path class="f" d="m14.9 0.2h0.1c3.7 0 7.2 1.3 9.7 3.7-0.5 0.5-1 1-1.4 1.5h2.8c0.5 0.5 0.9 1 1.2 1.5h-5.2c-0.3 0.6-0.6 1-0.8 1.6h6.8c0.2 0.4 0.4 1 0.6 1.5h-8c-0.2 0.5-0.3 1-0.4 1.5h8.9c0.2 1 0.3 2 0.3 3.1 0 1.6-0.3 3.2-0.7 4.6h-8.1c0.2 0.6 0.4 1.1 0.7 1.6h6.8c-0.2 0.5-0.5 1.1-0.8 1.5h-5.2c0.3 0.5 0.7 1 1.1 1.5h3c-0.5 0.5-0.9 1.1-1.5 1.5-2.6 2.3-6 3.8-9.8 3.8"/><path class="g" d="m19.2 18.5c-0.7 0-1.2-0.4-1.2-1.3 0-0.6 0.9-5.7 0.9-5.7h1.5l-0.1 0.9h0.8l-0.3 1.5h-0.8l-0.5 2.7c-0.1 0.1 0 0.4 0.6 0.4 0.1 0 0.3-0.1 0.3-0.1l-0.2 1.3c-0.1 0.1-0.5 0.3-1 0.3z"/><path fill-rule="evenodd" class="g" d="m23.5 12.3c1.7 0 2.3 1.2 2.3 2.2 0 0.4-0.3 1.4-0.3 1.4h-3.1c0 0-0.3 1.3 1.3 1.3 0.8 0 1.7-0.4 1.7-0.4l-0.3 1.4c0 0-0.5 0.3-1.7 0.3-1.2 0-2.7-0.6-2.7-2.7 0-1.9 1.2-3.6 2.8-3.5zm-1.1 2.3h1.7c0-0.1 0.2-1.1-0.7-1.1-0.8 0-1 1-1 1.1z"/><path class="g" d="m31.8 18.5c-1.9 0-2.8-1.3-2.8-3.3 0-2.9 1.8-4.4 3.5-4.4 0.9 0 1.8 0.4 1.8 0.4l-0.2 1.6c0 0-0.7-0.5-1.4-0.5-1.1 0-2 1-2 2.9 0 0.9 0.4 1.7 1.5 1.7 0.6 0 1.3-0.3 1.3-0.3l-0.3 1.6c0 0-0.8 0.3-1.4 0.3z"/><path fill-rule="evenodd" class="g" d="m13.8 14.1l-0.6 4.2h-1.4l0.1-0.6c-0.1 0-0.5 0.7-1.6 0.7-0.6 0-1.5-0.3-1.5-1.7 0-1.8 1.5-2.3 2.8-2.3 0.2 0 0.7 0 0.7 0 0 0 0.1-0.1 0.1-0.4 0-0.5-0.5-0.5-1-0.5-1 0-1.7 0.3-1.7 0.3l0.2-1.3c0 0 0.8-0.3 1.8-0.3 0.6 0 2.1 0 2.1 1.9zm-2.1 1.5c-1.1 0-1.3 0.5-1.3 0.9 0 0.2 0.1 0.6 0.6 0.6 0.9 0 1-1.2 1-1.5 0 0 0 0-0.3 0z"/><path class="g" d="m13.5 18.1l0.2-1.4c0 0 0.7 0.2 1.4 0.2 0.4 0 1 0 1-0.5 0-0.7-2-0.5-2-2.3 0-1.6 1.2-2 2.3-2 1 0 1.5 0.1 1.5 0.1l-0.2 1.4c0 0-0.9-0.1-1.1-0.1-0.5 0-0.9 0.2-0.9 0.6 0 0.8 1.9 0.4 1.9 2.3 0 2.1-1.9 2-2.3 2-1.3 0-1.7-0.2-1.8-0.3z"/><path fill-rule="evenodd" class="g" d="m47.6 11l-1.1 7.4h-1.6l0.1-0.5c0 0-0.5 0.6-1.5 0.6-1.3 0-1.9-1.3-1.9-2.6 0-2 1.2-3.7 2.6-3.7 0.9 0 1.5 0.8 1.5 0.8l0.3-2.1zm-3.2 2.7c-0.7 0-1.2 0.8-1.2 2 0 0.8 0.3 1.3 0.9 1.3 0.8 0 1.2-1.1 1.2-2 0-0.9-0.3-1.3-0.9-1.3z"/><path class="g" d="m1.9 18.3l1.2-7.4h2.2l0.1 4.6 1.6-4.6h2.5l-1.2 7.4h-1.6l0.8-5.5-2 5.5h-1.1l-0.1-5.5-1 5.5z"/><path class="g" d="m27.2 18.4h-1.7l1-6h1.5l-0.2 0.8c0 0 0.6-0.9 1.3-0.9 0.2 0 0.3 0 0.3 0-0.2 0.4-0.4 0.8-0.6 1.8-1-0.4-1.1 1.7-1.6 4.2z"/><path fill-rule="evenodd" class="g" d="m38.8 14.1l-0.6 4.2h-1.4l0.1-0.6c-0.1 0-0.5 0.7-1.6 0.7-0.5 0-1.5-0.3-1.5-1.7 0-1.8 1.5-2.3 2.8-2.3 0.2 0 0.7 0 0.7 0 0 0 0.1-0.1 0.1-0.4 0-0.5-0.5-0.5-1-0.5-1 0-1.7 0.3-1.7 0.3l0.2-1.3c0 0 0.8-0.3 1.9-0.3 0.5 0 2.1 0 2 1.9zm-2 1.5c-1.1 0-1.3 0.5-1.3 0.9 0 0.2 0.1 0.6 0.6 0.6 0.9 0 1-1.2 1-1.5 0 0 0 0-0.3 0z"/><path class="g" d="m40.1 18.4h-1.6l1-6h1.4l-0.1 0.8c0 0 0.5-0.9 1.2-0.9 0.2 0 0.3 0 0.3 0-0.2 0.4-0.4 0.8-0.5 1.8-1.1-0.4-1.2 1.7-1.7 4.2z"/><path class="h" d="m20.4 11.5l-0.1 0.9h0.8l-0.3 1.5h-0.8l-0.5 2.7c-0.1 0.1 0 0.4 0.6 0.4 0.1 0 0.3-0.1 0.3-0.1l-0.2 1.3c-0.1 0.1-0.6 0.3-1.1 0.3-0.7 0-1.3-0.4-1.3-1.3"/><path fill-rule="evenodd" class="h" d="m23.5 12.3c1.7 0 2.3 1.2 2.3 2.2 0 0.4-0.3 1.4-0.3 1.4h-3.1c0 0-0.3 1.3 1.3 1.3 0.8 0 1.7-0.4 1.7-0.4l-0.3 1.4c0 0-0.5 0.3-1.7 0.3-1.2 0-1.9-0.6-1.9-2.7 0-1.9 0.4-3.6 2-3.5zm-1.1 2.3h2c0-0.1-0.1-1.1-1-1.1-0.8 0-1 1-1 1.1z"/><path class="h" d="m31.8 18.5c-1.9 0-2-1.3-2-3.3 0-2.9 1-4.4 2.7-4.4 0.9 0 1.8 0.4 1.8 0.4l-0.2 1.6c0 0-0.7-0.5-1.4-0.5-1.1 0-2 1-2 2.9 0 0.9 0.4 1.7 1.5 1.7 0.6 0 1.3-0.3 1.3-0.3l-0.3 1.6c0 0-0.8 0.3-1.4 0.3z"/><path fill-rule="evenodd" class="h" d="m11.7 12.3c0.6 0 2.1 0.1 2.1 1.9l-0.6 4.2h-1.4l0.1-0.6c-0.1 0-0.5 0.7-1.6 0.7-0.6 0-1.5-0.3-1.5-1.7 0-1.8 1.5-2.3 2.8-2.3 0.2 0 0.7 0 0.7 0 0 0 0.1-0.1 0.1-0.4 0-0.5-0.5-0.6-1-0.6-1 0-1.7 0.4-1.7 0.4m2 1.7c-1.1 0-1.3 0.5-1.3 0.9 0 0.2 0.1 0.6 0.6 0.6 0.9 0 1.8-1.2 1.8-1.5 0 0-0.8 0-1.1 0z"/><path class="h" d="m15.2 16.9c0.4 0 0.9 0 0.9-0.5 0-0.7-1.1-0.5-1.1-2.3 0-1.6 0.4-2 1.5-2 0.9 0 1.5 0.1 1.5 0.1l-0.3 1.4c0 0-0.8-0.1-1-0.1-0.6 0-0.9 0.2-0.9 0.6 0 0.8 1.9 0.4 1.9 2.3 0 2.1-2 2-2.3 2-1.4 0-1.8-0.2-1.8-0.2"/><path fill-rule="evenodd" class="h" d="m47.6 11l-1.1 7.4h-1.6l0.1-0.5c0 0-0.5 0.6-1.5 0.6-1.3 0-1.1-1.3-1.1-2.6 0-2 0.4-3.7 1.8-3.7 0.9 0 1.5 0.8 1.5 0.8m-1.2 0.7c-0.7 0-1.3 0.8-1.3 2 0 0.8 0.3 1.2 0.9 1.2 0.8 0 1.5-1 1.5-1.9 0-0.9-0.6-1.3-1.1-1.3z"/><path class="h" d="m1.9 18.3l2.6-7.4h0.8l0.1 4.6 2.2-4.6h1.9l-1.2 7.4h-1.6l0.8-5.5-2 5.5h-1.1l-0.1-5.5-1 5.5z"/><path class="h" d="m28 12.4l-0.2 0.8c0 0 0.6-0.9 1.3-0.9 0.2 0 0.3 0 0.3 0-0.2 0.4-0.4 0.8-0.6 1.8-1-0.4-1.1 1.7-1.6 4.2h-1.6"/><path fill-rule="evenodd" class="h" d="m36.7 12.3c0.6 0 2.1 0.1 2.1 1.9l-0.6 4.2h-1.4l0.1-0.6c-0.1 0-0.5 0.7-1.6 0.7-0.5 0-1.5-0.3-1.5-1.7 0-1.8 1.5-2.3 2.8-2.3 0.2 0 0.7 0 0.7 0 0 0 0.1-0.1 0.1-0.4 0-0.5-0.5-0.6-1-0.6-1 0-1.7 0.4-1.7 0.4m2.1 1.7c-1.2 0-1.4 0.5-1.4 0.9 0 0.2 0.1 0.6 0.6 0.6 0.9 0 1.8-1.2 1.8-1.5 0 0-0.7 0-1 0z"/><path class="h" d="m40.9 12.4l-0.1 0.8c0 0 0.5-0.9 1.2-0.9 0.2 0 0.3 0 0.3 0-0.2 0.4-0.4 0.8-0.5 1.8-1.1-0.4-1.2 1.7-1.7 4.2h-1.6"/><path class="i" d="m80.4 29.3c-8.1 0-14.7-6.5-14.7-14.6 0-8.1 6.6-14.7 14.7-14.7 3.8 0 7.2 1.4 9.8 3.8 2.9 2.7 4.8 6.6 4.8 10.9 0 4.3-1.9 8.1-4.8 10.8-2.6 2.4-6 3.8-9.8 3.8z"/><path class="i" d="m90.2 3.8c2.9 2.7 4.8 6.6 4.8 10.9 0 4.3-1.9 8.1-4.8 10.8z"/><path class="j" d="m114.7 14.7c0 8.1-6.6 14.6-14.7 14.6-3.8 0-7.2-1.4-9.8-3.8q0.8-0.7 1.5-1.5h-3q-0.6-0.8-1.1-1.6h5.2c0.3-0.5 0.6-1 0.8-1.5h-6.9q-0.3-0.8-0.6-1.6h8.1c0.5-1.5 0.8-3 0.8-4.6 0-1.1-0.1-2.2-0.3-3.1h-9q0.2-0.8 0.4-1.6h8.1q-0.2-0.8-0.6-1.6h-6.9q0.4-0.7 0.9-1.5h5.2c-0.4-0.5-0.7-1.1-1.1-1.6h-3q0.7-0.8 1.5-1.5c2.6-2.4 6-3.8 9.8-3.8 8.1 0 14.7 6.6 14.7 14.7z"/><path fill-rule="evenodd" class="g" d="m109.6 17.8c0-0.2 0.2-0.4 0.5-0.4 0.2 0 0.4 0.2 0.4 0.4 0 0.3-0.2 0.5-0.4 0.5-0.3 0-0.5-0.2-0.5-0.5zm0.5 0.4c0.2 0 0.3-0.2 0.3-0.4 0-0.2-0.1-0.3-0.3-0.3-0.2 0-0.4 0.1-0.4 0.3 0 0.2 0.2 0.4 0.4 0.4zm-0.1-0.2h-0.1v-0.4h0.2q0.1 0 0.1 0 0.1 0.1 0.1 0.1 0 0.1-0.1 0.1l0.1 0.2h-0.2v-0.1h-0.1zm0.1-0.3q0 0 0 0 0 0 0 0h-0.1c0 0 0.1 0 0.1 0z"/><path class="g" d="m78.5 18.3h-1.8l1.1-5.7-2.5 5.7h-1.7l-0.3-5.7-1.1 5.7h-1.6l1.4-7.4h2.9l0.1 4.6 2-4.6h3z"/><path class="g" d="m98.9 18.2c-0.5 0.2-0.9 0.2-1.3 0.2-0.9 0-1.5-0.4-1.5-1.3q0.1-0.3 0.1-0.5l0.1-0.6 0.1-0.5 0.8-4.6h1.8l-0.2 1.4h0.9l-0.2 1.4h-1l-0.4 2.5q-0.1 0.2-0.1 0.3 0 0.5 0.6 0.5 0.3-0.1 0.5-0.1z"/><path class="g" d="m103.5 14h-0.2c0 0-0.1-0.1-0.2-0.1-0.9 0-1.1 0.7-1.8 4.4h-1.8l1.1-6h1.7l-0.2 0.9c0.5-0.7 1-1 1.6-1q0.1 0 0.2 0 0 0 0.1 0.1c0 0 0.1 0 0.2 0z"/><path class="g" d="m94.4 12.1c0.5 0 1.2 0.1 1.7 0.2l-0.3 1.3c-0.5 0-1-0.1-1.3-0.1q-0.9 0.1-0.9 0.5c0 0.3 0 0.4 0.8 0.7 1 0.4 1.3 0.9 1.3 1.7 0 1.4-0.9 2-2.8 2q-0.4 0-1-0.1c-0.2 0-0.4 0-0.5 0l-0.3-0.1h-0.1l0.2-1.4c0.6 0.2 1.1 0.3 1.7 0.3q1 0 1-0.6c0-0.3-0.1-0.3-0.8-0.7-1-0.3-1.4-0.9-1.4-1.6 0-1.1 0.7-2.1 2.7-2.1z"/><path fill-rule="evenodd" class="g" d="m84.4 18.3h-1.5l0.1-0.6q-0.7 0.7-1.9 0.7c-1 0-1.7-0.7-1.7-1.6 0-1.5 1.2-2.4 3.2-2.4q0.3 0 0.7 0.1c0.1-0.2 0.1-0.3 0.1-0.4 0-0.4-0.3-0.6-1.2-0.6-0.5 0-1.1 0.1-1.5 0.2l-0.2 0.1h-0.2l0.3-1.3c0.9-0.3 1.5-0.4 2.1-0.4 1.6 0 2.4 0.6 2.4 1.8 0 0.3 0 0.5-0.1 1.2l-0.4 2.1v0.4l-0.1 0.3v0.2zm-1.4-2.7c-0.2 0-0.2 0-0.4 0q-1.5 0-1.5 0.9c0 0.4 0.2 0.7 0.6 0.7 0.8 0 1.3-0.7 1.3-1.6z"/><path fill-rule="evenodd" class="g" d="m90.4 18.2q-0.9 0.2-1.8 0.2c-2.1 0-3.1-0.9-3.1-2.7 0-2.1 1.3-3.6 3.2-3.6 1.4 0 2.4 0.9 2.4 2.2 0 0.4-0.1 0.9-0.2 1.5h-3.7c0 0.1 0 0.1 0 0.2q0 1 1.6 1c0.7 0 1.3-0.1 1.9-0.3zm-1-3.6q0-0.2 0-0.3c0-0.5-0.3-0.8-0.8-0.8-0.6 0-1 0.4-1.2 1.1z"/><path fill-rule="evenodd" class="g" d="m109.9 15.6c-0.3 2-1.7 2.8-3.6 2.8-2 0-2.8-1.2-2.8-2.7 0-2.2 1.4-3.6 3.5-3.6 1.9 0 2.9 1.2 2.9 2.7 0 0.4 0 0.4 0 0.8zm-1.9-0.8c0-0.7-0.3-1.2-1-1.2-0.9 0-1.5 1.1-1.5 2 0 0.8 0.4 1.4 1 1.4 0.4 0 1.3-0.6 1.4-1.5q0.1-0.3 0.1-0.7z"/><path class="k" d="m146.4 20.9l2-11.5h3.3l-2 11.5z"/><path class="l" d="m146.4 20.9l2.6-11.5h2.7l-2 11.5z"/><path class="k" d="m160.8 12l-0.4-0.1c-0.5-0.3-1.3-0.5-2.4-0.5-1.3 0-1.9 0.6-1.9 1.1 0 0.5 0.8 0.9 1.9 1.4 1.9 0.9 2.8 1.9 2.8 3.2 0 2.5-2.3 4.1-5.7 4.1-1.5 0-2.9-0.3-3.6-0.6l0.4-2.7 0.5 0.2c1.1 0.5 1.8 0.7 3 0.7 0.9 0 2-0.4 2-1.2 0-0.5-0.4-0.9-1.7-1.5-1.3-0.6-2.9-1.5-2.9-3.2 0-2.3 2.3-3.9 5.5-3.9 1.3 0 2.3 0.3 3 0.5z"/><path class="l" d="m160.8 12l-0.4-0.1c-0.5-0.3-1.3-0.5-2.4-0.5-1.3 0-1.9 0.6-1.9 1.1 0 0.5 0.8 0.9 1.9 1.4 1.9 0.9 2.8 1.9 2.8 3.2 0 2.5-2.3 4.1-5.7 4.1-1.5 0-2.9-0.3-3.6-0.6l0.4-2.7 0.5 0.2c1.1 0.5 1.8 0.7 3 0.7 0.9 0 2-0.4 2-1.2 0-0.5-0.4-0.9-1.7-1.5-1.3-0.6-2.3-1.5-2.3-3.2 0-2.3 1.7-3.9 4.9-3.9 1.3 0 2.3 0.3 3 0.5z"/><path fill-rule="evenodd" class="k" d="m169.3 9.4l2.7 11.5h-3.1l-0.4-1.9h-4.1l-0.6 1.9h-3.5l4.8-10.7c0.4-0.8 0.9-0.8 1.7-0.8zm-4 7.7h2.7c-0.1-0.6-0.8-3.5-0.8-3.5l-0.1-1.1c-0.2 0.5-0.5 1.2-0.5 1.2 0 0-1.1 2.8-1.3 3.4z"/><path fill-rule="evenodd" class="l" d="m169.3 9.4l2.7 11.5h-3.1l-0.4-1.9h-4.1l-0.6 1.9h-3.5l5.6-10.7c0.3-0.8 0.9-0.8 1.7-0.8zm-4 7.7h2.7c-0.1-0.6-0.8-3.5-0.8-3.5l-0.2-1.1c-0.2 0.5-0.4 1.2-0.4 1.2 0 0-1 2.7-1.3 3.4z"/><path class="k" d="m143.8 9.4h3.4l-5.2 11.6h-3.4l-2.9-10.3c2 1.1 3.9 3.2 4.5 5.1l0.3 1.7z"/><path class="l" d="m144.4 9.4h2.8l-5.2 11.6h-3.4l-2.9-10.3c2 1.1 3.9 3.2 4.5 5.1l0.3 1.7z"/><path class="m" d="m137.5 9.4c0.7 0 1.3 0.2 1.5 0.9l1.2 5.5c-1.1-2.9-3.9-5.3-8.1-6.3l-0.5-0.1z"/><path class="b" d="m137.5 10c0.7 0 1.4 0.4 1.6 1.2l1.1 4.5c-1.1-2.9-4.5-5.4-8.6-6.3z"/><path class="n" d="m138.1 11.4c0.9 0.3 1.1 1.1 1.3 1.8l0.8 2.5c-1.1-2.9-4.5-5.4-8.6-6.3z"/><path class="o" d="m142.1 20.9h-3.5l-2.9-10.2c2.1 1 4 3.1 4.5 5l0.3 1.6 1-2.4 2.2 2.2z"/><path class="o" d="m146.4 20.9l0.5-2.8 2.8 2.8z"/><path class="o" d="m159.8 19.7c-1 1-2.6 1.6-4.7 1.6-1.5 0-2.9-0.4-3.6-0.7l0.4-2.6 0.5 0.2c1.1 0.4 1.8 0.6 3 0.6 0.9 0 2-0.4 2-1.1 0-0.3-0.1-0.5-0.4-0.7z"/><path class="o" d="m167.1 12.5c-0.2 0.5-0.5 1.2-0.5 1.2 0 0-1 2.7-1.3 3.4h2.7c-0.1-0.7-0.7-3.5-0.7-3.5l-0.2-1.1 3.8 3.8 1.1 4.6h-3.1l-0.4-1.9h-4.1l-0.6 1.9h-3"/></g></svg>