<svg version="1.2" xmlns="http://www.w3.org/2000/svg" viewBox="0 0 36 36" width="36" height="36"><defs><clipPath clipPathUnits="userSpaceOnUse" id="cp1"><path d="m-22-609h375v812h-375z"/></clipPath></defs><style>.a{fill:#005fd2}.b{fill:#003d8d}.c{fill:#78b9eb}.d{fill:#5698e1}.e{fill:#fff}.f{fill:#fff5cb}</style><g clip-path="url(#cp1)"><path class="a" d="m35.5 17.7c0 9.8-8 17.8-17.8 17.8-9.8 0-17.7-8-17.7-17.8 0-9.8 7.9-17.7 17.7-17.7 9.8 0 17.8 7.9 17.8 17.7z"/><path class="b" d="m18.6 35.4l-10.7-10.7c-0.2-0.3-0.3-0.6-0.2-1l3.8-16.3c0.1-0.5 0.5-0.8 0.9-0.8h7.3q1.2 0 2.1 0.4 0.9 0.4 1.5 1.1l2.9 2.9q0.6 0.3 1.1 0.9c0 0 5.2 5.1 8 8-1.1 8.4-8 15-16.7 15.5z"/><path class="c" d="m15.7 11.3c0.1-0.5 0.5-0.8 0.9-0.8h7.3q1.2 0 2.1 0.5 0.9 0.4 1.6 1.1 0.6 0.7 0.9 1.6 0.4 0.9 0.4 1.9 0 1.3-0.7 2.6-0.6 1.3-1.6 2.3-1.1 1-2.5 1.6-1.3 0.6-2.9 0.6h-3.2l-1.3 5.4c-0.1 0.4-0.5 0.8-0.9 0.8h-3c-0.6 0-1.1-0.6-1-1.2z"/><path class="d" d="m28.8 15.6q0 1.3-0.6 2.6-0.6 1.3-1.7 2.3-1 1-2.4 1.6-1.4 0.7-2.9 0.7h-3.2l-0.5 1.9v-14.1h6.4q0.4 0 0.7 0 0.7 0.1 1.4 0.4 0.9 0.4 1.5 1.1 0.7 0.7 1 1.7 0.3 0.9 0.3 1.8z"/><path class="e" d="m11.7 7.6c0.1-0.5 0.5-0.8 0.9-0.8h7.3q1.2 0 2.1 0.4 0.9 0.5 1.5 1.2 0.7 0.7 1 1.6 0.3 0.9 0.3 1.9 0 1.3-0.6 2.6-0.6 1.2-1.6 2.2-1.1 1-2.5 1.7-1.3 0.6-2.9 0.6h-3.3l-1.2 5.4c-0.1 0.4-0.5 0.7-1 0.7h-2.9c-0.6 0-1.1-0.6-1-1.2z"/><path class="f" d="m24.8 11.9q0 1.3-0.6 2.6-0.6 1.3-1.7 2.3-1 1-2.4 1.6-1.2 0.5-2.5 0.6v-12.2h2.3q1.1 0 2 0.5 1 0.4 1.6 1.1 0.6 0.7 0.9 1.6 0.2 0.3 0.2 0.7 0.2 0.6 0.2 1.2z"/></g></svg>